name analog
datacolumns 19
datarows 41
range 0.0 0.02
endheader
time	ground_force_vx	ground_force_vy	ground_force_vz	ground_force_px	ground_force_py	ground_force_pz	l_ground_force_vx	l_ground_force_vy	l_ground_force_vz	l_ground_force_px	l_ground_force_py	l_ground_force_pz	ground_torque_x	ground_torque_y	ground_torque_z	l_ground_torque_x	l_ground_torque_y	l_ground_torque_z
0.0	-0.0	-0.0	-0.0	1.013476848602295	17.372285842895508	-186.3176727294922	-3.9841854572296143	-13.440427780151367	-454.71820068359375	-0.0	-0.0	-0.0	-0.0	-0.0	-0.0	128106.8125	-15404.107421875	-3859.964599609375
0.0005	-0.0	-0.0	-0.0	0.697257399559021	17.510587692260742	-186.34893798828125	-4.0234375	-13.70551872253418	-454.2772216796875	-0.0	-0.0	-0.0	-0.0	-0.0	-0.0	128097.9296875	-15358.5302734375	-3919.366943359375
0.001	-0.0	-0.0	-0.0	0.4460525512695312	17.274744033813477	-185.45225524902344	-4.250184059143066	-13.778182983398438	-455.0070190429688	-0.0	-0.0	-0.0	-0.0	-0.0	-0.0	128144.8828125	-15291.9921875	-3876.59375
0.0015	-0.0	-0.0	-0.0	0.9004666209220886	18.18819236755371	-186.7990875244141	-4.242096900939941	-13.705811500549316	-455.1676025390625	-0.0	-0.0	-0.0	-0.0	-0.0	-0.0	128152.6953125	-15328.564453125	-3846.552490234375
0.002	-0.0	-0.0	-0.0	0.8752542734146118	17.71169662475586	-184.7464599609375	-4.500028610229492	-13.681822776794434	-454.5636291503906	-0.0	-0.0	-0.0	-0.0	-0.0	-0.0	127934.84375	-15274.03515625	-3765.943359375
0.0025	-0.0	-0.0	-0.0	0.6159704327583313	17.987350463867188	-187.37022399902344	-4.016438961029053	-14.035032272338867	-453.9933471679688	-0.0	-0.0	-0.0	-0.0	-0.0	-0.0	127851.8984375	-15231.556640625	-3754.9931640625
0.003	-0.0	-0.0	-0.0	0.6159003376960754	17.64781951904297	-188.0073089599609	-4.169406890869141	-13.89924430847168	-453.580322265625	-0.0	-0.0	-0.0	-0.0	-0.0	-0.0	127819.625	-15207.7763671875	-3857.3232421875
0.0035	-0.0	-0.0	-0.0	0.7769851684570312	17.782936096191406	-188.46131896972656	-3.7589879035949703	-13.84176254272461	-452.5982971191406	-0.0	-0.0	-0.0	-0.0	-0.0	-0.0	127660.65625	-15259.55078125	-3921.842529296875
0.004	-0.0	-0.0	-0.0	0.6157593727111816	18.04123306274414	-186.2293243408203	-4.063973903656006	-13.96315097808838	-453.666748046875	-0.0	-0.0	-0.0	-0.0	-0.0	-0.0	127404.234375	-15012.5458984375	-3859.96630859375
0.0045000000000000005	-0.0	-0.0	-0.0	0.5879298448562622	17.6025390625	-190.72283935546875	-4.105968952178955	-13.78657054901123	-451.8684997558594	-0.0	-0.0	-0.0	-0.0	-0.0	-0.0	127116.7265625	-15115.177734375	-3934.83740234375
0.005	-0.0	-0.0	-0.0	0.8744063973426819	17.92405128479004	-187.0423889160156	-4.169406890869141	-13.946368217468262	-452.6824951171875	-0.0	-0.0	-0.0	-0.0	-0.0	-0.0	127034.890625	-14996.51953125	-3803.504638671875
0.0055	-0.0	-0.0	-0.0	0.2676846981048584	18.244977951049805	-189.44580078125	-4.123556137084961	-14.000475883483888	-450.2251586914063	-0.0	-0.0	-0.0	-0.0	-0.0	-0.0	126910.3046875	-14958.818359375	-3996.80224609375
0.006	-0.0	-0.0	-0.0	0.7040025591850281	18.04026985168457	-189.5152587890625	-4.223575592041016	-13.972021102905272	-448.8977661132813	-0.0	-0.0	-0.0	-0.0	-0.0	-0.0	126584.0390625	-15052.7998046875	-3728.99609375
0.006500000000000001	-0.0	-0.0	-0.0	0.356842041015625	17.871379852294922	-190.11849975585935	-3.9658472537994394	-13.954826354980469	-449.0089721679688	-0.0	-0.0	-0.0	-0.0	-0.0	-0.0	126246.5390625	-14950.58984375	-3859.77685546875
0.007	-0.0	-0.0	-0.0	0.7480652928352356	18.022602081298828	-193.6063537597656	-3.672272682189941	-14.228535652160645	-446.3540344238281	-0.0	-0.0	-0.0	-0.0	-0.0	-0.0	126034.828125	-14836.0576171875	-3743.89501953125
0.0075	-0.0	-0.0	-0.0	0.784491240978241	18.45918655395508	-195.0170745849609	-3.5838143825531006	-14.016727447509766	-447.6471862792969	-0.0	-0.0	-0.0	-0.0	-0.0	-0.0	126090.4296875	-14755.470703125	-3657.744140625
0.008	-0.0	-0.0	-0.0	0.3140284419059753	18.54839515686035	-195.12481689453125	-3.57520055770874	-14.405318260192873	-445.6228332519531	-0.0	-0.0	-0.0	-0.0	-0.0	-0.0	125780.4375	-15023.0654296875	-3809.16650390625
0.0085	-0.0	-0.0	-0.0	0.2438697218894958	19.10698699951172	-195.8297882080078	-3.805570602416992	-14.281251907348633	-445.3807067871094	-0.0	-0.0	-0.0	-0.0	-0.0	-0.0	125733.453125	-14867.154296875	-3649.404541015625
0.009000000000000001	-0.0	-0.0	-0.0	0.1690064966678619	18.956558227539062	-193.91531372070312	-3.885159730911255	-14.11343479156494	-445.5531005859375	-0.0	-0.0	-0.0	-0.0	-0.0	-0.0	125177.2421875	-15057.865234375	-3826.951416015625
0.0095	-0.0	-0.0	-0.0	0.6054922342300415	19.172517776489254	-198.02122497558597	-3.787164211273194	-13.823648452758787	-444.54193115234375	-0.0	-0.0	-0.0	-0.0	-0.0	-0.0	125206.390625	-14942.3974609375	-3897.42529296875
0.01	-0.0	-0.0	-0.0	0.7837857604026794	18.98477554321289	-198.0077209472656	-3.5240962505340576	-14.140625953674316	-444.22943115234375	-0.0	-0.0	-0.0	-0.0	-0.0	-0.0	125137.234375	-14753.4970703125	-3820.45849609375
0.0105	-0.0	-0.0	-0.0	0.3761062622070312	19.134166717529297	-197.15066528320312	-3.646415948867798	-14.122236251831056	-444.57952880859375	-0.0	-0.0	-0.0	-0.0	-0.0	-0.0	125084.1953125	-14870.5361328125	-3723.48876953125
0.011	-0.0	-0.0	-0.0	0.3840650916099548	19.391651153564453	-198.8018951416016	-3.674518346786499	-14.150075912475586	-443.9001770019531	-0.0	-0.0	-0.0	-0.0	-0.0	-0.0	125078.34375	-14982.5244140625	-3690.7978515625
0.0115	-0.0	-0.0	-0.0	1.0021612644195557	19.213136672973636	-200.01583862304688	-3.627734899520874	-14.080612182617188	-443.4966125488281	-0.0	-0.0	-0.0	-0.0	-0.0	-0.0	124758.15625	-15108.7236328125	-3614.379638671875
0.012	-0.0	-0.0	-0.0	0.6441617608070374	19.48021697998047	-199.93881225585935	-3.637142181396485	-14.071476936340332	-443.347900390625	-0.0	-0.0	-0.0	-0.0	-0.0	-0.0	124778.8203125	-15109.3828125	-3637.860107421875
0.0125	-0.0	-0.0	-0.0	0.9714072346687316	19.549291610717773	-199.03643798828125	-3.4788174629211426	-14.229297637939451	-443.272216796875	-0.0	-0.0	-0.0	-0.0	-0.0	-0.0	124994.953125	-15003.1708984375	-3684.429443359375
0.013000000000000001	-0.0	-0.0	-0.0	0.5058971047401428	19.657958984375	-199.0772247314453	-3.4501068592071533	-14.27939796447754	-443.03558349609375	-0.0	-0.0	-0.0	-0.0	-0.0	-0.0	124901.1640625	-14964.0322265625	-3651.543212890625
0.0135	-0.0	-0.0	-0.0	1.4173178672790527	19.03498268127441	-201.9791259765625	-3.548431396484375	-14.00306224822998	-441.2513732910156	-0.0	-0.0	-0.0	-0.0	-0.0	-0.0	124848.671875	-15007.99609375	-3710.845458984375
0.014	-0.0	-0.0	-0.0	1.198340892791748	19.89442443847656	-201.31256103515625	-3.7258529663085938	-13.876221656799316	-442.0259399414063	-0.0	-0.0	-0.0	-0.0	-0.0	-0.0	124555.53125	-15024.240234375	-3625.1875
0.0145	-0.0	-0.0	-0.0	0.9430999159812928	19.84551048278809	-203.27012634277344	-3.538594007492065	-13.72903823852539	-442.0646667480469	-0.0	-0.0	-0.0	-0.0	-0.0	-0.0	124518.3125	-15137.0908203125	-3766.758056640625
0.015	-0.0	-0.0	-0.0	0.9229122400283812	19.766429901123047	-203.431640625	-3.647049427032471	-14.033284187316896	-440.0870056152344	-0.0	-0.0	-0.0	-0.0	-0.0	-0.0	124409.015625	-15046.64453125	-3770.17822265625
0.0155	-0.0	-0.0	-0.0	1.811424732208252	19.97553253173828	-205.34619140625	-4.099614143371582	-14.150304794311523	-437.7616882324219	-0.0	-0.0	-0.0	-0.0	-0.0	-0.0	124032.5703125	-14801.052734375	-3846.165283203125
0.016	-0.0	-0.0	-0.0	0.902515470981598	20.13306999206543	-205.32118225097656	-3.804516077041626	-13.778182983398438	-438.3434753417969	-0.0	-0.0	-0.0	-0.0	-0.0	-0.0	123550.4140625	-14797.96875	-3592.768798828125
0.0165	-0.0	-0.0	-0.0	1.38544499874115	20.26937484741211	-207.0261688232422	-3.794328451156616	-13.64183235168457	-437.4073486328125	-0.0	-0.0	-0.0	-0.0	-0.0	-0.0	123344.234375	-14623.4013671875	-3770.113525390625
0.017	-0.0	-0.0	-0.0	1.070526123046875	20.49999237060547	-207.14971923828125	-3.589134931564331	-13.679730415344238	-436.6284790039063	-0.0	-0.0	-0.0	-0.0	-0.0	-0.0	122731.140625	-14952.9599609375	-3720.837890625
0.0175	-0.0	-0.0	-0.0	1.6419270038604736	20.882015228271484	-210.36917114257807	-4.090946674346924	-14.07376480102539	-432.55853271484375	-0.0	-0.0	-0.0	-0.0	-0.0	-0.0	122262.84375	-14820.47265625	-3698.536376953125
0.018000000000000002	-0.0	-0.0	-0.0	1.2382616996765137	21.259462356567383	-211.243896484375	-4.138442993164063	-13.981492042541504	-432.3715515136719	-0.0	-0.0	-0.0	-0.0	-0.0	-0.0	121915.0625	-14720.244140625	-3819.3505859375
0.0185	-0.0	-0.0	-0.0	1.4027369022369385	21.09164428710937	-211.8227386474609	-4.091094493865967	-14.05350112915039	-430.8940124511719	-0.0	-0.0	-0.0	-0.0	-0.0	-0.0	121615.3984375	-14711.1845703125	-3754.580078125
0.019	-0.0	-0.0	-0.0	1.549057960510254	21.602006912231445	-213.4492645263672	-3.866870641708374	-14.084810256958008	-428.4090576171875	-0.0	-0.0	-0.0	-0.0	-0.0	-0.0	121261.84375	-14699.3759765625	-3799.826904296875
0.0195	-0.0	-0.0	-0.0	1.784210205078125	22.593542098999023	-212.56314086914065	-4.205458164215088	-14.3544921875	-427.4859313964844	-0.0	-0.0	-0.0	-0.0	-0.0	-0.0	121011.7578125	-14851.365234375	-3833.2978515625
0.02	-0.0	-0.0	-0.0	1.4397532939910889	22.96274757385254	-216.9884033203125	-3.892665386199951	-14.2764253616333	-425.3501892089844	-0.0	-0.0	-0.0	-0.0	-0.0	-0.0	120350.4921875	-14612.96484375	-3766.6328125
